<?xml version="1.0" encoding="UTF-8" standalone="no"?>
<svg
   xmlns:dc="http://purl.org/dc/elements/1.1/"
   xmlns:cc="http://creativecommons.org/ns#"
   xmlns:rdf="http://www.w3.org/1999/02/22-rdf-syntax-ns#"
   xmlns:svg="http://www.w3.org/2000/svg"
   xmlns="http://www.w3.org/2000/svg"
   xmlns:sodipodi="http://sodipodi.sourceforge.net/DTD/sodipodi-0.dtd"
   xmlns:inkscape="http://www.inkscape.org/namespaces/inkscape"
   width="512"
   height="512"
   viewBox="0 0 135.46666 135.46666"
   version="1.1"
   id="svg8"
   inkscape:version="1.0.2 (e86c870879, 2021-01-15)"
   sodipodi:docname="icon.svg">
  <defs
     id="defs2" />
  <sodipodi:namedview
     id="base"
     pagecolor="#ffffff"
     bordercolor="#666666"
     borderopacity="1.0"
     inkscape:pageopacity="0.0"
     inkscape:pageshadow="2"
     inkscape:zoom="1.4"
     inkscape:cx="216.23817"
     inkscape:cy="214.80355"
     inkscape:document-units="mm"
     inkscape:current-layer="layer2"
     inkscape:document-rotation="0"
     showgrid="false"
     units="px"
     inkscape:pagecheckerboard="true"
     borderlayer="false"
     showborder="true"
     inkscape:window-width="1916"
     inkscape:window-height="1058"
     inkscape:window-x="0"
     inkscape:window-y="20"
     inkscape:window-maximized="1"
     inkscape:snap-nodes="false" />
  <metadata
     id="metadata5">
    <rdf:RDF>
      <cc:Work
         rdf:about="">
        <dc:format>image/svg+xml</dc:format>
        <dc:type
           rdf:resource="http://purl.org/dc/dcmitype/StillImage" />
        <dc:title></dc:title>
      </cc:Work>
    </rdf:RDF>
  </metadata>
  <g
     inkscape:groupmode="layer"
     id="layer2"
     inkscape:label="Body"
     style="display:inline">
    <path
       id="path863"
       style="fill:#ecffc9;fill-opacity:1;stroke:#64a91a;stroke-width:1.70161;stroke-opacity:1"
       d="m 134.38393,68.29642 c -0.99668,37.04795 -34.07324,62.70392 -60.915463,62.70392 -26.842224,0 -65.996752,-16.10098 -71.953529,-67.035467 C -1.3620745,39.364464 42.488702,-0.28508699 67.718371,2.5694468 113.78548,7.7815693 135.05001,43.537308 134.38393,68.29642 Z"
       sodipodi:nodetypes="sssss" />
  </g>
  <g
     inkscape:groupmode="layer"
     id="layer3"
     inkscape:label="Pieces"
     style="display:inline">
    <path
       id="rect867"
       style="fill:#aacd67;fill-opacity:1;stroke:#ecffc9;stroke-width:1;stroke-opacity:1"
       d="m 100.28213,22.200305 c 9.38632,3.117672 16.62538,16.752931 16.62538,16.752931 -0.93061,1.425573 -14.9115,16.298201 -39.131672,24.45855 C 71.91888,61.635391 100.28213,22.200305 100.28213,22.200305 Z"
       sodipodi:nodetypes="cccc" />
    <path
       id="rect867-3"
       style="fill:#aacd67;fill-opacity:1;stroke:#ecffc9;stroke-width:1;stroke-opacity:1"
       d="M 70.067335,13.019535 C 83.599731,11.350053 97.075874,21.290648 97.075874,21.290648 96.962072,22.989281 83.853831,44.27002 73.014678,61.72318 68.677189,63.362697 70.067335,13.019535 70.067335,13.019535 Z"
       sodipodi:nodetypes="cccc"
       inkscape:transform-center-x="12.446772"
       inkscape:transform-center-y="16.687406" />
    <path
       id="rect867-3-6"
       style="fill:#aacd67;fill-opacity:1;stroke:#ecffc9;stroke-width:1;stroke-opacity:1"
       d="m 39.469253,20.899763 c 14.233729,-12.3903691 26.189098,-7.272835 26.189098,-7.272835 -0.0095,2.667494 5.200276,22.874741 0.481217,47.993227 C 62.458105,64.615401 39.469253,20.899763 39.469253,20.899763 Z"
       sodipodi:nodetypes="cccc"
       inkscape:transform-center-x="9.4549429"
       inkscape:transform-center-y="23.007364" />
    <path
       id="rect867-3-6-7"
       style="fill:#aacd67;fill-opacity:1;stroke:#ecffc9;stroke-width:1;stroke-opacity:1"
       d="m 16.384277,42.608876 c 3.0978,-11.49275 18.641195,-19.565773 18.641195,-19.565773 2.631156,2.567803 12.295097,15.251246 25.859219,38.121679 C 59.52711,67.13274 16.384277,42.608876 16.384277,42.608876 Z"
       sodipodi:nodetypes="cccc"
       inkscape:transform-center-x="-5.6545357"
       inkscape:transform-center-y="18.992315" />
    <path
       id="rect867-3-6-7-5"
       style="fill:#aacd67;fill-opacity:1;stroke:#ecffc9;stroke-width:1;stroke-opacity:1"
       d="m 11.946528,75.569666 c -7.7610365,-13.172163 2.275259,-28.607698 2.275259,-28.607698 1.699085,-0.106837 27.779009,11.296489 44.838529,18.942116 2.079477,5.756329 -47.113788,9.665582 -47.113788,9.665582 z"
       sodipodi:nodetypes="cccc"
       inkscape:transform-center-x="-19.18085"
       inkscape:transform-center-y="11.663023" />
    <path
       id="path961"
       style="fill:#aacd67;fill-opacity:1;stroke:#ecffc9;stroke-width:1;stroke-opacity:1"
       d="M 37.444314,112.18716 C 16.175501,102.14719 12.533577,79.815473 12.533577,79.815473 13.81989,78.700259 38.862569,71.277981 64.392517,70.082338 70.99849,74.557841 37.444314,112.18716 37.444314,112.18716 Z"
       sodipodi:nodetypes="cccc"
       inkscape:transform-center-x="-22.250613"
       inkscape:transform-center-y="4.0639219" />
    <path
       id="path963"
       style="fill:#aacd67;fill-opacity:1;stroke:#ecffc9;stroke-width:1;stroke-opacity:1"
       d="m 73.40021,124.14044 c -18.155236,4.69256 -33.10718,-9.3957 -33.10718,-9.3957 0.27693,-1.67976 11.584414,-21.055715 28.052832,-39.767628 6.07606,-0.735562 5.054348,49.163328 5.054348,49.163328 z"
       sodipodi:nodetypes="cccc"
       inkscape:transform-center-x="-13.899675"
       inkscape:transform-center-y="-14.548017" />
    <path
       id="path976"
       style="fill:#aacd67;fill-opacity:1;stroke:#ecffc9;stroke-width:1;stroke-opacity:1"
       d="m 106.70679,111.43257 c -8.377779,11.95054 -28.526065,12.03084 -28.526065,12.03084 -0.889625,-1.4515 -5.18698,-20.22625 -4.852775,-47.314966 1.871167,0.08048 33.37884,35.284126 33.37884,35.284126 z"
       sodipodi:nodetypes="cccc"
       inkscape:transform-center-x="-8.1901152"
       inkscape:transform-center-y="-22.910807" />
    <path
       id="path978"
       style="fill:#aacd67;fill-opacity:1;stroke:#ecffc9;stroke-width:1;stroke-opacity:1"
       d="m 124.33071,78.548099 c 1.21986,18.435997 -13.3018,29.208001 -13.3018,29.208001 -1.62129,-0.51933 -19.442146,-15.058503 -35.549757,-34.261271 -2.134021,-6.060896 48.851557,5.05327 48.851557,5.05327 z"
       sodipodi:nodetypes="cccc"
       inkscape:transform-center-x="10.926886"
       inkscape:transform-center-y="-16.212691" />
    <path
       id="path980"
       style="fill:#aacd67;fill-opacity:1;stroke:#ecffc9;stroke-width:1;stroke-opacity:1"
       d="m 118.95993,42.241528 c 14.74563,18.947103 5.64804,32.392619 5.64804,32.392619 -1.61778,0.530157 -33.890046,0.251709 -48.066404,-7.050271 -0.895842,-3.412335 42.418364,-25.342348 42.418364,-25.342348 z"
       sodipodi:nodetypes="cccc"
       inkscape:transform-center-x="22.42945"
       inkscape:transform-center-y="-11.344626" />
  </g>
</svg>
